<svg xmlns="http://www.w3.org/2000/svg" xmlns:xlink="http://www.w3.org/1999/xlink" width="1000" zoomAndPan="magnify" viewBox="0 0 750 749.999995" height="1000" preserveAspectRatio="xMidYMid meet" version="1.0"><path fill="#fbc3af" d="M 424.875 408.929688 C 412.542969 420.3125 403.238281 421.574219 396.027344 421.804688 C 391.921875 421.933594 388.578125 421.5 385.773438 423.078125 C 376.957031 428.054688 327.859375 455.726562 265.179688 462.179688 C 249.457031 463.800781 240.773438 460.816406 236.179688 455.0625 C 233.359375 451.527344 231.992188 446.855469 231.621094 441.238281 C 231.082031 433.515625 232.414062 423.890625 233.714844 413.097656 C 233.867188 411.78125 235.082031 410.839844 236.402344 410.996094 C 236.6875 411.03125 236.957031 411.113281 237.210938 411.238281 C 237.328125 411.234375 237.449219 411.242188 237.566406 411.253906 C 248.511719 412.597656 257.410156 415.136719 265.25 416.769531 C 272.5625 418.292969 278.863281 419.054688 285.09375 416.917969 C 325.746094 402.972656 325.96875 404.21875 367.144531 392.371094 C 376.519531 389.671875 380.84375 385.386719 385.046875 382.296875 C 388.660156 379.636719 392.175781 377.683594 397.933594 377.765625 C 386.214844 362.339844 376.941406 347.890625 372.53125 340.820312 C 372.078125 340.664062 371.652344 340.367188 371.351562 339.949219 C 363.683594 329.308594 358.851562 327.679688 351.996094 325.960938 C 346.960938 324.703125 340.964844 323.375 332.417969 319.007812 C 327.640625 316.574219 325.273438 314.449219 324.296875 312.804688 C 323.179688 310.941406 323.316406 309.347656 324.042969 307.996094 C 324.667969 306.828125 325.917969 305.800781 327.46875 305.058594 C 328.347656 304.640625 329.34375 304.300781 330.273438 304.035156 C 329.648438 303.15625 329.042969 302.207031 328.601562 301.324219 C 327.722656 299.507812 327.707031 297.816406 328.296875 296.761719 C 328.855469 295.757812 330.273438 294.816406 332.265625 294.421875 C 332.789062 294.320312 333.382812 294.242188 333.972656 294.1875 C 333.261719 293.019531 332.992188 291.960938 332.992188 291.042969 C 332.976562 288.917969 334.292969 287.0625 336.335938 285.613281 C 337.265625 284.957031 338.347656 284.386719 339.378906 283.871094 C 329.023438 276.117188 326.167969 273.796875 324.871094 272.730469 C 324.699219 272.710938 324.546875 272.679688 324.378906 272.628906 C 299.652344 264.96875 285.71875 257.976562 277.832031 248.402344 C 271.800781 241.058594 269.183594 232.179688 268.152344 220.1875 C 268.019531 218.574219 267.917969 216.902344 267.832031 215.167969 C 252.242188 214.96875 244.167969 206.550781 241.957031 197.363281 C 239.878906 188.710938 243.089844 179.246094 250.285156 174.558594 C 255.03125 171.453125 261.582031 170.34375 269.589844 173.101562 C 269.707031 173.078125 269.824219 173.0625 269.945312 173.054688 C 285.078125 157.953125 286.140625 156.332031 289.332031 136.414062 C 289.484375 135.46875 290.175781 134.707031 291.125 134.464844 C 292.050781 134.226562 293.03125 134.5625 293.625 135.316406 C 295.328125 137.46875 296.324219 139.691406 298.671875 141.089844 C 300.34375 142.085938 302.710938 142.589844 306.492188 142.472656 C 310.800781 142.335938 316.726562 141.378906 325.15625 139.28125 C 331.457031 137.714844 335.8125 136.351562 338.871094 134.929688 C 341.453125 133.726562 342.976562 132.550781 343.851562 131.0625 C 345.152344 128.886719 345.203125 126.207031 345.578125 122.539062 C 345.675781 121.507812 346.453125 120.660156 347.46875 120.4375 C 348.480469 120.214844 349.527344 120.667969 350.070312 121.558594 C 353.175781 126.757812 355.289062 129.796875 357.769531 131.4375 C 359.441406 132.535156 361.265625 132.910156 363.683594 133 C 366.554688 133.105469 370.152344 132.804688 375.015625 132.503906 C 383.140625 132.003906 387.851562 131.984375 391.109375 130.03125 C 394.269531 128.152344 395.824219 124.4375 398.203125 117.109375 C 398.527344 116.117188 399.472656 115.441406 400.519531 115.445312 C 401.566406 115.449219 402.496094 116.125 402.816406 117.117188 C 404.757812 123.128906 406.363281 126.804688 407.695312 129.042969 C 408.625 130.601562 409.199219 131.289062 409.742188 131.492188 C 409.925781 131.558594 410.0625 131.496094 410.164062 131.496094 L 410.820312 131.5625 C 412.039062 131.8125 427.527344 132.421875 434.484375 132.285156 C 435.515625 132.261719 436.664062 132.171875 437 132.144531 C 438.890625 131.121094 439.820312 129.019531 440.464844 127.007812 C 441.308594 124.339844 441.59375 121.675781 441.933594 120.453125 C 442.203125 119.449219 443.097656 118.738281 444.144531 118.691406 C 445.191406 118.640625 446.15625 119.265625 446.527344 120.238281 C 449.921875 129.097656 453.839844 142.316406 460.847656 151.84375 C 465.070312 157.585938 470.441406 161.96875 477.652344 162.8125 C 478.027344 162.597656 478.464844 162.476562 478.9375 162.488281 C 480.273438 162.527344 481.320312 163.632812 481.285156 164.957031 C 481.25 166.511719 481.199219 167.976562 481.132812 169.363281 C 485.878906 166.699219 491.046875 167.667969 495.253906 170.753906 C 502.109375 175.773438 506.230469 186.742188 500.980469 196.015625 C 497.703125 201.820312 490.609375 207.113281 477.703125 209.453125 C 477.605469 212.316406 477.570312 215.5625 477.585938 219.335938 C 477.671875 233.351562 470.222656 244.195312 459.851562 252.589844 C 444.9375 264.671875 423.910156 271.621094 412.171875 276.011719 C 411.765625 276.164062 411.328125 276.199219 410.941406 276.136719 C 410.820312 276.257812 410.703125 276.375 410.585938 276.472656 C 405.890625 280.078125 401.851562 283.238281 398.441406 286.050781 C 398.050781 286.402344 397.679688 286.75 397.308594 287.101562 C 397.882812 288.304688 398.253906 291.605469 406.648438 299.648438 C 407.222656 300.199219 407.476562 300.996094 407.34375 301.777344 C 407.207031 302.558594 406.699219 303.222656 405.972656 303.554688 C 399 306.730469 399.152344 306.765625 391.433594 307.960938 C 391.347656 307.972656 391.246094 307.984375 391.144531 307.988281 C 392.445312 311.039062 394.523438 314.472656 397.445312 318.472656 C 397.851562 319.03125 439.296875 370.25 451.273438 384.691406 C 459.007812 394.019531 462.910156 398.832031 467.910156 401.984375 C 472.910156 405.136719 478.953125 406.613281 490.828125 409.484375 C 490.84375 409.492188 490.863281 409.496094 490.878906 409.5 C 491.367188 409.113281 491.992188 408.910156 492.667969 408.984375 C 493.988281 409.128906 494.949219 410.316406 494.796875 411.632812 C 494.59375 413.433594 493.515625 422.695312 486.640625 428.738281 C 482.0625 432.765625 474.917969 435.5 463.667969 433.464844 C 451.949219 431.34375 439.179688 422.578125 426.96875 410.953125 C 426.277344 410.289062 425.566406 409.613281 424.875 408.929688 Z M 273.472656 602.3125 C 273.964844 601.902344 274.621094 601.679688 275.316406 601.757812 C 298.132812 604.300781 309.886719 603.042969 318.738281 602.335938 C 328.078125 601.585938 334.34375 601.433594 346.167969 606.445312 C 347.164062 606.863281 347.753906 607.875 347.621094 608.929688 C 343.042969 647.878906 340.375 667.78125 338.3125 678.609375 C 336.085938 690.21875 334.394531 692.0625 331.980469 694.886719 C 327.503906 700.140625 317.859375 705.160156 306.578125 708.753906 C 289.925781 714.058594 269.773438 716.324219 258.257812 712.5625 C 257.5625 712.339844 257.023438 711.835938 256.753906 711.179688 C 256.5 710.527344 256.535156 709.789062 256.855469 709.164062 C 277.222656 670.738281 275.214844 653.421875 271.617188 604.828125 C 271.53125 603.632812 272.34375 602.578125 273.472656 602.3125 Z M 458.738281 605.78125 C 458.789062 606.042969 458.773438 606.316406 458.703125 606.589844 C 443.199219 679.238281 469.886719 699.96875 476.269531 704.828125 C 476.980469 705.363281 477.316406 706.242188 477.179688 707.109375 C 477.046875 707.980469 476.4375 708.703125 475.59375 708.996094 C 458.621094 714.964844 434.296875 715.992188 416.53125 709.59375 C 404.117188 705.128906 394.910156 697.070312 392.933594 684.875 C 386.113281 642.742188 382.363281 625.914062 380.808594 617.90625 C 379.644531 611.925781 379.675781 610.332031 380.417969 607.667969 C 380.84375 606.191406 381.433594 605.242188 382.34375 604.554688 C 383.15625 603.953125 384.304688 603.519531 386.214844 603.375 C 392.089844 602.925781 408.304688 604.921875 457.046875 601.527344 C 458.382812 601.433594 459.53125 602.433594 459.632812 603.753906 C 459.683594 604.558594 459.328125 605.304688 458.738281 605.78125 Z M 458.738281 605.78125 " fill-opacity="1" fill-rule="evenodd"/><path fill="#3d1e22" d="M 408.304688 162.976562 C 407.511719 164.046875 406.007812 164.28125 404.925781 163.503906 C 403.847656 162.722656 403.609375 161.21875 404.386719 160.148438 C 411.089844 151.03125 417.238281 150.585938 423.335938 150.945312 C 428.183594 151.230469 433.046875 152.375 438.265625 147.796875 C 439.265625 146.921875 440.800781 147.015625 441.679688 148.007812 C 442.574219 149 442.472656 150.519531 441.476562 151.398438 C 436.171875 156.042969 431.222656 156.273438 426.292969 155.964844 C 422.746094 155.742188 419.214844 155.113281 415.566406 156.640625 C 413.203125 157.625 410.820312 159.542969 408.304688 162.976562 Z M 360.945312 208.265625 C 360.21875 209.382812 358.734375 209.714844 357.601562 209.003906 C 356.46875 208.292969 356.132812 206.808594 356.859375 205.6875 C 360.117188 200.59375 363.851562 198.21875 367.429688 197.320312 C 375.671875 195.257812 383.492188 201.382812 384.710938 202.355469 C 385.738281 203.195312 385.890625 204.707031 385.046875 205.734375 C 384.203125 206.761719 382.683594 206.917969 381.652344 206.082031 C 380.742188 205.339844 374.878906 200.410156 368.613281 201.980469 C 365.980469 202.636719 363.34375 204.515625 360.945312 208.265625 Z M 365.878906 233.40625 C 364.796875 234.195312 363.277344 233.96875 362.484375 232.902344 C 361.6875 231.835938 361.925781 230.332031 363.007812 229.542969 C 377.71875 218.761719 390.46875 226.109375 392.511719 227.28125 C 393.679688 227.945312 394.066406 229.414062 393.40625 230.5625 C 392.730469 231.710938 391.261719 232.105469 390.097656 231.441406 C 388.410156 230.480469 377.953125 224.558594 365.878906 233.40625 Z M 308.859375 169.140625 C 307.910156 170.085938 306.375 170.097656 305.429688 169.164062 C 304.484375 168.238281 304.464844 166.714844 305.414062 165.769531 C 321.796875 149.28125 339.96875 156.84375 342.789062 158.011719 C 344.023438 158.523438 344.597656 159.929688 344.089844 161.152344 C 343.566406 162.375 342.148438 162.953125 340.914062 162.445312 C 338.5 161.441406 322.910156 154.996094 308.859375 169.140625 Z M 329.664062 172.058594 C 331.539062 172.058594 333.296875 172.886719 334.714844 174.316406 C 336.691406 176.332031 338.007812 179.570312 338.007812 183.234375 C 338.007812 186.894531 336.691406 190.136719 334.714844 192.148438 C 333.296875 193.582031 331.539062 194.40625 329.664062 194.40625 C 327.773438 194.40625 326.035156 193.582031 324.617188 192.148438 C 322.640625 190.136719 321.324219 186.894531 321.324219 183.234375 C 321.324219 179.570312 322.640625 176.332031 324.617188 174.316406 C 326.035156 172.886719 327.773438 172.058594 329.664062 172.058594 Z M 418.101562 167.886719 C 419.976562 167.886719 421.730469 168.710938 423.152344 170.140625 C 425.128906 172.15625 426.445312 175.394531 426.445312 179.058594 C 426.445312 182.722656 425.128906 185.960938 423.152344 187.976562 C 421.730469 189.40625 419.976562 190.230469 418.101562 190.230469 C 416.210938 190.230469 414.46875 189.40625 413.050781 187.976562 C 411.074219 185.960938 409.757812 182.722656 409.757812 179.058594 C 409.757812 175.394531 411.074219 172.15625 413.050781 170.140625 C 414.46875 168.710938 416.210938 167.886719 418.101562 167.886719 Z M 242.277344 181.386719 C 241.636719 181.101562 241.128906 180.546875 240.945312 179.828125 C 235.253906 158.902344 239.339844 136.097656 250.234375 114.980469 C 266.246094 83.941406 296.933594 56.554688 332.214844 44.308594 C 332.46875 44.097656 332.789062 43.945312 333.128906 43.859375 C 359.070312 37.585938 386.0625 38.894531 398.878906 40.03125 C 399.234375 39.890625 399.625 39.832031 400.027344 39.878906 C 402.308594 40.121094 448.0625 37.144531 484.023438 91.8125 C 500.808594 117.320312 502.230469 143 499.410156 156.957031 C 498.632812 160.78125 497.515625 163.773438 496.335938 165.734375 C 495.269531 167.511719 494.039062 168.558594 492.90625 168.988281 C 487.738281 170.992188 484.496094 170.609375 482.449219 169.589844 C 479.800781 168.273438 478.515625 164.730469 478.109375 163.445312 C 477.605469 163.210938 476.996094 163.089844 476.320312 162.917969 C 471.015625 161.59375 461.84375 159.886719 448.570312 132.84375 C 448.351562 132.625 448.164062 132.355469 448.03125 132.050781 C 446.070312 127.289062 445.445312 125.933594 444.144531 123.3125 C 443.335938 124.988281 442.625 126.40625 441.914062 127.601562 C 440.378906 130.164062 438.808594 131.820312 436.613281 132.902344 C 433.976562 134.203125 430.3125 134.621094 424.230469 134.417969 C 412.425781 134.023438 407.070312 131.90625 404.269531 128.585938 C 402.765625 126.796875 401.921875 124.613281 401.347656 121.964844 C 401.277344 121.675781 401.210938 121.375 401.160156 121.070312 C 399.894531 123.355469 398.8125 125.214844 397.765625 126.742188 C 395.621094 129.867188 393.609375 131.707031 390.976562 132.910156 C 388.832031 133.882812 386.261719 134.421875 382.75 134.789062 C 370.082031 136.105469 362.871094 135.0625 357.839844 132.671875 C 353.886719 130.804688 351.234375 128.085938 348.398438 124.820312 C 347.433594 126.976562 346 129.570312 343.328125 132.199219 C 339.007812 136.457031 331.40625 140.871094 316.980469 143.371094 C 304.738281 145.496094 300.515625 142.589844 296.898438 139.867188 C 295.496094 138.808594 294.25 137.714844 292.375 137.160156 C 291.191406 141.195312 288.503906 149.636719 284.6875 157.507812 C 281.359375 164.355469 277.121094 170.730469 272.324219 173.789062 C 268.339844 176.328125 265.265625 176.152344 261.886719 175.859375 C 258.003906 175.519531 253.679688 175.191406 245.859375 181.867188 C 244.84375 182.730469 243.308594 182.617188 242.445312 181.613281 C 242.378906 181.539062 242.328125 181.464844 242.277344 181.386719 Z M 241.992188 212.289062 C 242.546875 211.949219 243.242188 211.835938 243.917969 212.027344 C 266.210938 218.382812 266.109375 218.496094 267.664062 219.738281 C 269.03125 220.828125 270.128906 223.011719 271.042969 225.886719 C 272.105469 229.257812 273.085938 233.714844 275.011719 237.769531 C 283.4375 255.589844 284.03125 269.949219 280.332031 281.121094 C 274.722656 298.050781 259.132812 307.847656 244.695312 311.414062 C 234.085938 314.03125 224.121094 313.1875 218.988281 309.734375 C 206.625 301.417969 202.046875 286.597656 203.5 270.691406 C 205.628906 247.410156 220.675781 221.941406 241.550781 212.441406 C 241.6875 212.375 241.839844 212.324219 241.992188 212.289062 Z M 476.503906 218.371094 C 476.589844 217.382812 477.300781 216.507812 478.328125 216.253906 C 488.988281 213.625 492.316406 208.769531 495.136719 206.160156 C 496.503906 204.902344 497.835938 204.0625 499.410156 203.75 C 500.929688 203.4375 502.753906 203.605469 505.203125 204.679688 C 514.523438 208.773438 524.457031 217.574219 531.785156 229.050781 C 542.765625 246.25 547.863281 269.386719 536.53125 291.351562 C 532.074219 299.996094 523.460938 303.539062 514.1875 304.0625 C 500.777344 304.816406 486.132812 299.144531 481.925781 295.007812 C 451.578125 265.109375 472.46875 228.390625 476.167969 218.964844 C 476.253906 218.746094 476.355469 218.546875 476.503906 218.371094 Z M 265.585938 506.347656 C 265.976562 505.214844 267.171875 504.53125 268.390625 504.796875 C 344.679688 521.441406 421.257812 511.027344 471.40625 505.347656 C 472.585938 505.214844 473.703125 505.953125 474.023438 507.09375 C 475.863281 513.699219 478.820312 524.226562 489.257812 591.433594 C 489.359375 591.996094 489.816406 595.058594 489.070312 597.945312 C 488.496094 600.253906 487.195312 602.410156 484.765625 603.582031 C 482.28125 604.78125 475.238281 605.75 465.019531 606.34375 C 442.269531 607.664062 403.152344 607.613281 364.949219 607.0625 C 315.867188 606.359375 268.289062 604.835938 258.929688 604.378906 C 257.292969 604.296875 256.414062 604.066406 256.347656 604.03125 C 254.808594 603.289062 253.59375 602.527344 252.664062 601.375 C 251.363281 599.769531 250.539062 597.296875 250.671875 592.445312 C 250.960938 582.453125 255.148438 560.425781 264.472656 507.96875 C 264.605469 507.269531 265.011719 506.695312 265.585938 506.347656 Z M 471.183594 19.652344 C 472.707031 20.671875 473.109375 22.726562 472.097656 24.242188 C 471.066406 25.757812 468.988281 26.160156 467.453125 25.144531 C 465.273438 23.679688 464.261719 21.578125 464.226562 19.097656 C 464.210938 16.460938 465.5625 13.183594 467.992188 10.121094 C 471.234375 6.03125 476.355469 2.28125 481.488281 0.945312 C 485.40625 -0.078125 489.34375 0.261719 492.6875 2.488281 C 501.453125 8.335938 501.433594 15.707031 499.339844 24.125 C 498.308594 28.257812 496.757812 32.664062 495.996094 37.238281 C 495 43.335938 495.523438 49.769531 501.535156 56.175781 C 502.785156 57.511719 502.71875 59.605469 501.367188 60.851562 C 500.015625 62.09375 497.90625 62.019531 496.65625 60.683594 C 486.03125 49.371094 488.515625 38.058594 491.402344 27.84375 C 492.382812 24.355469 493.414062 21.03125 493.714844 17.921875 C 494.070312 14.144531 493.140625 10.769531 488.953125 7.976562 C 487.246094 6.832031 485.203125 6.816406 483.175781 7.34375 C 479.378906 8.332031 475.628906 11.183594 473.230469 14.214844 C 472.25 15.449219 471.488281 16.707031 471.117188 17.890625 C 470.882812 18.597656 470.628906 19.277344 471.183594 19.652344 Z M 501.484375 68.960938 C 502.515625 67.925781 504.15625 67.65625 505.503906 68.410156 C 505.878906 68.621094 507.835938 69.742188 509.375 71.433594 C 510.707031 72.898438 511.671875 74.75 511.703125 76.761719 C 511.738281 78.835938 510.910156 81.304688 507.734375 83.707031 L 506.992188 84.152344 L 506.128906 84.464844 C 505.589844 84.613281 504.863281 84.738281 504.035156 84.753906 C 501.90625 84.796875 499.238281 84.097656 497.515625 82.070312 C 495.914062 80.179688 494.746094 76.761719 497.128906 70.808594 C 497.804688 69.113281 499.746094 68.277344 501.453125 68.949219 C 501.46875 68.953125 501.46875 68.957031 501.484375 68.960938 Z M 501.484375 68.960938 " fill-opacity="1" fill-rule="evenodd"/><path fill="#e7a086" d="M 402.359375 380.335938 C 403.746094 383.617188 412.359375 393.351562 413.21875 394.351562 C 418.558594 400.453125 418.726562 400.042969 425.464844 404.769531 C 426.546875 405.535156 426.800781 407.035156 426.039062 408.117188 C 425.261719 409.199219 423.742188 409.457031 422.660156 408.691406 C 415.433594 403.621094 415.28125 404.039062 409.554688 397.496094 C 408.726562 396.539062 401.378906 388.101562 398.746094 383.808594 C 398.136719 382.808594 397.75 381.960938 397.613281 381.378906 L 397.496094 380.507812 L 397.613281 379.683594 C 397.984375 378.410156 399.320312 377.679688 400.601562 378.046875 C 401.648438 378.351562 402.34375 379.300781 402.359375 380.335938 Z M 333.246094 293.792969 C 332.046875 292.699219 331.40625 291.425781 331.238281 288.660156 L 331.253906 287.859375 L 331.507812 286.949219 L 332.03125 286.113281 C 332.25 285.859375 332.570312 285.574219 333.027344 285.269531 C 333.886719 284.679688 335.746094 283.820312 339.632812 282.296875 C 332.488281 278.855469 328.585938 276.523438 326.59375 274.773438 C 324.75 273.148438 324.175781 271.730469 324.074219 270.523438 C 323.992188 269.253906 324.445312 268.058594 325.292969 266.808594 C 326.101562 265.59375 327.539062 264.683594 329.632812 264.285156 C 331.792969 263.875 334.835938 263.984375 338.382812 264.492188 C 350.863281 266.273438 370.285156 272.941406 377.378906 273.300781 C 379.21875 273.394531 381.332031 272.828125 383.542969 272.054688 C 387.363281 270.722656 391.414062 268.753906 394.980469 267.585938 C 400.179688 265.890625 404.503906 266.105469 406.871094 269.609375 C 407.933594 271.203125 408.269531 272.664062 408.152344 274 C 408.035156 275.339844 407.460938 276.601562 406.445312 277.800781 C 404.996094 279.5 402.511719 281.128906 399.757812 282.9375 C 395.65625 285.621094 390.773438 288.777344 389.355469 294.269531 C 388.410156 297.910156 389.066406 302.507812 392.242188 308.585938 C 392.851562 309.761719 392.394531 311.210938 391.210938 311.820312 C 390.011719 312.433594 388.5625 311.972656 387.9375 310.796875 C 384.015625 303.296875 383.492188 297.570312 384.660156 293.070312 C 386.398438 286.351562 392.074219 282.21875 397.089844 278.929688 C 399 277.679688 400.773438 276.566406 402.039062 275.410156 C 402.714844 274.800781 403.289062 274.261719 403.339844 273.558594 C 403.355469 273.15625 403.152344 272.75 402.832031 272.273438 C 402.257812 271.421875 401.347656 271.257812 400.265625 271.316406 C 399.132812 271.378906 397.867188 271.703125 396.5 272.148438 C 392.953125 273.304688 388.933594 275.265625 385.148438 276.585938 C 382.277344 277.585938 379.523438 278.21875 377.125 278.097656 C 369.964844 277.734375 350.304688 271.046875 337.6875 269.242188 C 335.222656 268.890625 333.0625 268.726562 331.371094 268.890625 C 330.816406 268.9375 330.339844 269.019531 329.917969 269.15625 C 329.664062 269.238281 329.429688 269.289062 329.328125 269.460938 C 329.175781 269.683594 328.992188 270.066406 328.921875 270.183594 C 328.957031 270.230469 329.007812 270.320312 329.042969 270.375 C 329.175781 270.570312 329.363281 270.773438 329.597656 270.992188 C 330.867188 272.179688 333.164062 273.625 337.011719 275.628906 C 339.582031 276.960938 342.789062 278.511719 346.792969 280.351562 C 347.671875 280.757812 348.226562 281.652344 348.195312 282.621094 C 348.160156 283.589844 347.535156 284.4375 346.625 284.777344 C 341.589844 286.652344 338.667969 287.800781 336.996094 288.582031 C 336.660156 288.738281 336.355469 288.898438 336.117188 289.023438 C 336.167969 289.472656 336.234375 289.804688 336.40625 290.074219 C 336.625 290.433594 336.980469 290.632812 337.453125 290.9375 C 338.601562 291.691406 340.207031 292.621094 342.453125 294.433594 C 343.296875 295.113281 343.582031 296.253906 343.144531 297.238281 C 342.722656 298.222656 341.691406 298.808594 340.628906 298.679688 C 338.683594 298.441406 335.257812 298.1875 332.824219 298.726562 C 332.4375 298.8125 331.945312 299.027344 331.691406 299.144531 C 331.8125 299.414062 332.046875 299.921875 332.351562 300.324219 C 333.144531 301.355469 334.394531 302.570312 336.183594 304.023438 C 336.910156 304.613281 337.234375 305.5625 336.996094 306.464844 C 336.777344 307.367188 336.050781 308.0625 335.121094 308.238281 C 334.445312 308.375 332.097656 308.375 329.917969 308.753906 C 329.292969 308.859375 328.449219 309.175781 328.011719 309.351562 C 328.246094 309.738281 328.738281 310.457031 329.378906 311.074219 C 329.953125 311.636719 330.664062 312.25 331.539062 312.925781 C 336.792969 317 353.261719 322.34375 355.203125 322.628906 C 356.539062 322.824219 357.449219 324.046875 357.246094 325.355469 C 357.0625 326.667969 355.828125 327.574219 354.511719 327.378906 C 352.367188 327.066406 334.3125 321.175781 328.550781 316.707031 C 326.085938 314.792969 324.632812 313.207031 323.890625 311.960938 C 323.097656 310.660156 322.925781 309.539062 323.027344 308.613281 C 323.230469 306.898438 324.429688 305.53125 326.421875 304.738281 C 327.234375 304.414062 328.195312 304.195312 329.191406 304.035156 C 328.0625 302.738281 327.402344 301.636719 327.082031 300.734375 C 326.761719 299.835938 326.710938 299.035156 326.8125 298.332031 L 327.148438 297.144531 L 327.792969 296.144531 C 328.601562 295.179688 330.003906 294.433594 331.761719 294.042969 C 332.234375 293.9375 332.722656 293.855469 333.246094 293.792969 Z M 333.246094 293.792969 " fill-opacity="1" fill-rule="evenodd"/><path fill="#ff9900" d="M 397.597656 377.171875 C 397.613281 378.109375 397.054688 379.007812 396.144531 379.40625 C 391.332031 381.480469 388.613281 383.898438 385.640625 386.128906 C 382.3125 388.625 378.714844 390.925781 372.277344 392.488281 C 332.519531 402.152344 313.011719 409.816406 299.5 414.519531 C 285.550781 419.378906 277.796875 421.15625 261.5 418.902344 C 246.667969 416.84375 236.484375 416.195312 230.574219 414.5 C 226.808594 413.421875 224.542969 411.808594 223.480469 409.652344 C 222.414062 407.53125 222.433594 404.671875 223.902344 400.714844 C 238.039062 363.101562 248.425781 339.457031 268.574219 322.921875 C 282.054688 311.867188 299.90625 303.964844 326.253906 297.3125 C 327.117188 297.097656 327.960938 297.355469 328.550781 297.917969 C 329.566406 298.144531 330.339844 299 330.441406 300.074219 L 330.59375 302.199219 C 330.644531 302.851562 330.441406 303.496094 330.003906 303.984375 C 328.296875 305.871094 327.148438 307.515625 326.523438 308.988281 C 326.070312 310.089844 325.917969 311.046875 326.121094 311.910156 C 326.644531 313.960938 328.804688 315.3125 331.675781 316.714844 C 337.113281 319.375 345.070312 321.574219 353.058594 324.753906 C 361.484375 328.101562 369.898438 332.511719 375.757812 339.375 C 376.636719 340.414062 380.621094 345.066406 385.4375 353.433594 C 391.601562 364.121094 391.3125 364.125 397.546875 374.894531 C 397.953125 375.621094 397.953125 376.476562 397.597656 377.171875 Z M 269.285156 461.605469 C 269.046875 460.375 269.808594 459.152344 271.058594 458.832031 C 329.480469 443.796875 331.066406 444.671875 350.050781 438.015625 C 374.253906 429.53125 372.464844 426.339844 381.601562 420.398438 C 384.894531 418.253906 387.648438 417.902344 390.789062 417.917969 C 396.820312 417.953125 404.605469 419.460938 423.828125 407.097656 C 424.636719 406.570312 425.703125 406.582031 426.496094 407.125 C 446.59375 420.660156 445.292969 422.597656 467.808594 431.796875 C 468.601562 432.117188 469.160156 432.832031 469.292969 433.671875 C 475.003906 472.664062 480.035156 490.503906 480.425781 499.066406 C 480.59375 502.730469 479.917969 505.027344 478.582031 506.609375 C 477.25 508.175781 475.136719 509.148438 471.945312 509.769531 C 447.082031 514.597656 374.964844 522.769531 278.152344 510.941406 C 272.207031 510.214844 268.304688 508.347656 265.855469 505.667969 C 263.324219 502.914062 262.207031 499.230469 262.207031 494.632812 C 262.226562 486.671875 265.671875 475.660156 269.046875 462.191406 C 269.097656 461.984375 269.183594 461.785156 269.285156 461.605469 Z M 406.414062 299.84375 C 407.070312 298.980469 408.269531 298.652344 409.316406 299.113281 C 440.140625 312.796875 457.894531 317.507812 470.882812 333.320312 C 479.546875 343.890625 486.132812 359.441406 492.90625 386.085938 C 495.371094 395.769531 497.636719 402.695312 497.753906 406.398438 C 497.820312 408.484375 497.230469 409.898438 496.351562 410.75 C 495.386719 411.675781 493.886719 412.21875 491.621094 411.742188 C 469.023438 407 461.355469 402.195312 445.597656 383.308594 C 435.394531 371.089844 421.714844 352.804688 397.902344 324.433594 C 392.582031 318.09375 390.011719 311.75 389.539062 310.5 L 389.320312 309.636719 L 389.355469 308.578125 L 389.710938 307.558594 L 390.351562 306.699219 C 390.605469 306.429688 390.976562 306.125 391.515625 305.800781 C 393.121094 304.820312 397.023438 303.257812 406.414062 299.84375 Z M 248.039062 205.816406 C 248.410156 205.777344 248.78125 205.8125 249.152344 205.949219 C 261.785156 210.539062 262.953125 210.144531 269.402344 216.371094 C 270.0625 216.996094 270.296875 217.929688 270.027344 218.792969 C 269.757812 219.652344 269.03125 220.292969 268.152344 220.453125 C 258.070312 222.261719 249.980469 218.515625 245.792969 214.886719 C 243.613281 213.007812 242.445312 211.042969 242.195312 209.722656 L 242.109375 209.023438 L 242.175781 208.246094 L 242.582031 207.152344 L 243.070312 206.539062 L 243.664062 206.066406 L 244.304688 205.746094 L 244.929688 205.5625 C 245.640625 205.421875 246.667969 205.445312 248.039062 205.816406 Z M 492.992188 200.882812 C 493.328125 200.53125 493.785156 200.277344 494.308594 200.179688 C 496.367188 199.804688 497.871094 199.800781 498.902344 200.003906 C 499.425781 200.105469 499.863281 200.261719 500.234375 200.445312 L 500.859375 200.84375 L 501.453125 201.394531 L 502.007812 202.320312 L 502.261719 203.320312 C 502.347656 204.039062 502.210938 204.894531 501.789062 205.824219 C 500.386719 208.863281 494.695312 213.742188 488.867188 216.4375 C 484.628906 218.394531 480.355469 219.089844 477.535156 217.855469 C 475.710938 217.054688 474.902344 215.929688 474.597656 214.867188 C 474.207031 213.410156 474.765625 211.539062 476.625 209.777344 C 480.375 206.222656 490.117188 202.0625 492.992188 200.882812 Z M 492.992188 200.882812 " fill-opacity="1" fill-rule="evenodd"/><path fill="#c55f3c" d="M 475.304688 706.71875 C 475.796875 706.53125 476.355469 706.5 476.894531 706.667969 C 501.183594 714.164062 513.664062 720.402344 518.089844 725.28125 C 519.894531 727.285156 520.589844 729.195312 520.554688 730.914062 C 520.503906 732.636719 519.726562 734.273438 518.191406 735.746094 C 516.449219 737.386719 513.597656 738.882812 509.847656 740.128906 C 493.007812 745.742188 456.777344 747.21875 434.28125 746.53125 C 424.25 746.226562 416.867188 745.394531 414.789062 744.453125 C 413.777344 743.988281 408.507812 741.640625 404.996094 734.507812 C 404.199219 732.914062 403.945312 733.089844 392.816406 695.140625 C 392.511719 694.105469 392.953125 692.996094 393.863281 692.429688 C 394.792969 691.859375 395.992188 691.972656 396.785156 692.707031 C 415.871094 710.207031 433.910156 715.714844 475.070312 706.757812 C 475.15625 706.742188 475.222656 706.726562 475.304688 706.71875 Z M 258.121094 707.875 C 258.59375 707.660156 259.152344 707.597656 259.691406 707.738281 C 298.875 717.535156 320.324219 698.53125 336.457031 685.914062 C 337.199219 685.332031 338.195312 685.234375 339.039062 685.65625 C 339.882812 686.082031 340.40625 686.949219 340.375 687.882812 C 339.714844 705.828125 339.816406 705.71875 339.664062 707.261719 C 338.566406 718.488281 336.828125 723.28125 336.335938 724.613281 C 335.441406 727.101562 333.585938 729.460938 330.847656 731.613281 C 327.167969 734.5 321.863281 737.0625 315.496094 739.226562 C 291.527344 747.367188 252.242188 749.988281 232.160156 745.496094 C 227.71875 744.503906 224.15625 743.140625 221.789062 741.484375 C 219.832031 740.109375 218.597656 738.5 218.074219 736.746094 C 217.246094 733.964844 218.125 730.535156 221.941406 726.703125 C 226.992188 721.636719 237.699219 715.316406 256.078125 707.785156 C 256.753906 707.503906 257.496094 707.558594 258.121094 707.875 Z M 439.113281 338.433594 C 438.890625 337.128906 439.789062 335.886719 441.105469 335.667969 C 442.421875 335.449219 443.671875 336.332031 443.890625 337.636719 C 449.246094 369.234375 452.335938 376.011719 456.472656 390.300781 C 456.828125 391.574219 456.085938 392.902344 454.800781 393.269531 C 453.519531 393.636719 452.183594 392.898438 451.8125 391.625 C 447.625 377.195312 444.535156 370.347656 439.113281 338.433594 Z M 290.277344 341.695312 C 290.378906 340.375 291.546875 339.382812 292.878906 339.480469 C 294.214844 339.578125 295.210938 340.730469 295.109375 342.050781 C 291.292969 392.9375 289.976562 392.660156 285.363281 416.855469 C 285.109375 418.160156 283.84375 419.019531 282.527344 418.773438 C 281.226562 418.527344 280.347656 417.269531 280.601562 415.964844 C 285.179688 391.941406 286.480469 392.214844 290.277344 341.695312 Z M 290.277344 341.695312 " fill-opacity="1" fill-rule="evenodd"/></svg>