<svg xmlns="http://www.w3.org/2000/svg" xmlns:xlink="http://www.w3.org/1999/xlink" width="1000" zoomAndPan="magnify" viewBox="0 0 750 749.999995" height="1000" preserveAspectRatio="xMidYMid meet" version="1.0"><path fill="#bd4e27" d="M 467.394531 382 C 397.382812 413.070312 228.773438 298.277344 201.207031 239.5 C 146.800781 217.621094 177.429688 41.714844 306.953125 35.589844 C 303.597656 34.277344 300.097656 33.109375 296.597656 32.234375 C 283.179688 28.878906 268.445312 28.441406 254.882812 30.628906 C 253.421875 30.921875 252.695312 28.878906 254.296875 28.296875 C 268.445312 23.484375 282.59375 22.609375 297.179688 25.378906 C 304.472656 26.835938 312.785156 29.171875 320.371094 32.816406 C 322.996094 28.734375 325.769531 24.941406 328.683594 21.441406 C 336.5625 11.960938 349.398438 1.019531 362.234375 0 C 363.109375 0 363.109375 1.019531 362.671875 1.457031 C 356.835938 5.6875 350.710938 8.75 345.167969 13.710938 C 340.5 17.941406 336.414062 22.609375 332.769531 27.714844 C 331.601562 29.316406 330.582031 30.921875 329.707031 32.527344 C 391.695312 1.894531 546.886719 19.253906 574.746094 144.253906 C 603.191406 273.335938 537.40625 350.933594 467.394531 382 Z M 467.394531 382 " fill-opacity="1" fill-rule="nonzero"/><path fill="#ff9900" d="M 494.234375 592.035156 C 494.234375 592.035156 508.382812 668.175781 512.175781 711.203125 C 512.175781 711.203125 330.289062 750 217.542969 714.265625 L 209.519531 504.667969 C 235.921875 451.285156 279.238281 413.945312 357.855469 411.902344 C 436.472656 409.859375 511.007812 431.15625 525.449219 531.503906 Z M 353.917969 118.582031 C 355.960938 140.023438 363.398438 160.152344 377.109375 177.070312 C 384.109375 185.53125 392.425781 193.117188 401.613281 199.09375 C 409.78125 204.492188 420.722656 210.910156 430.640625 211.054688 C 433.996094 211.054688 435.015625 206.679688 432.246094 204.929688 C 424.367188 199.972656 414.886719 197.492188 406.71875 192.53125 C 398.257812 187.28125 390.675781 180.863281 383.964844 173.425781 C 370.253906 158.253906 360.191406 139.148438 357.417969 118.726562 C 357.273438 116.394531 353.773438 116.25 353.917969 118.582031 Z M 420.867188 174.882812 C 437.785156 195.742188 465.644531 221.558594 494.816406 219.222656 C 497.441406 219.078125 498.171875 215.285156 495.402344 214.554688 C 481.542969 210.765625 468.5625 206.824219 456.3125 199.09375 C 444.203125 191.511719 433.410156 181.882812 422.035156 173.277344 C 421.011719 172.695312 420.136719 174.152344 420.867188 174.882812 Z M 545.136719 162.484375 C 559.140625 190.78125 553.742188 220.972656 542.222656 248.980469 C 541.492188 250.582031 543.972656 251.894531 545.136719 250.730469 C 566.726562 226.078125 563.660156 187.863281 547.910156 161.027344 C 546.742188 159.128906 544.117188 160.734375 545.136719 162.484375 Z M 202.082031 214.847656 C 237.960938 234.394531 292.949219 220.097656 310.160156 181.300781 C 311.472656 178.382812 307.828125 174.882812 305.492188 177.65625 C 293.386719 191.804688 280.699219 204.785156 262.757812 211.492188 C 243.210938 218.933594 222.9375 217.910156 203.101562 212.660156 C 201.789062 212.222656 200.914062 214.117188 202.082031 214.847656 Z M 202.082031 214.847656 " fill-opacity="1" fill-rule="nonzero"/><path fill="#fbc3af" d="M 519.757812 322.929688 C 505.757812 364.789062 453.683594 398.335938 395.632812 408.253906 C 390.382812 441.65625 363.984375 456.824219 352.898438 454.347656 C 340.9375 451.722656 320.371094 431.738281 320.078125 424.882812 C 319.933594 420.507812 319.933594 412.339844 319.933594 406.941406 C 299.515625 402.273438 279.96875 393.816406 262.902344 380.6875 C 204.707031 329.199219 201.351562 239.351562 201.351562 239.351562 C 316.726562 250.4375 339.332031 167.882812 339.332031 167.882812 C 339.332031 167.882812 353.335938 260.792969 537.554688 256.710938 C 575.039062 264.730469 571.683594 325.847656 519.757812 322.929688 Z M 519.757812 322.929688 " fill-opacity="1" fill-rule="nonzero"/><path fill="#3d1e22" d="M 422.472656 350.203125 C 422.472656 350.203125 427.867188 450.699219 427.867188 458.140625 C 411.96875 478.558594 394.46875 464.703125 394.46875 464.703125 L 386.589844 355.015625 C 402.636719 356.332031 422.472656 350.203125 422.472656 350.203125 Z M 422.472656 350.203125 " fill-opacity="1" fill-rule="nonzero"/><path fill="#fbc3af" d="M 479.941406 531.359375 L 525.59375 531.359375 C 525.59375 531.359375 536.386719 617.125 475.417969 626.019531 C 399.863281 635.648438 409.929688 501.605469 409.929688 501.605469 C 400.15625 502.332031 388.632812 496.351562 392.71875 485.269531 C 392.71875 485.269531 380.320312 481.039062 388.339844 469.222656 C 388.339844 469.222656 378.277344 460.035156 386.589844 450.554688 C 382.070312 426.488281 422.324219 441.074219 422.324219 441.074219 L 426.703125 428.820312 C 462 434.949219 479.941406 531.359375 479.941406 531.359375 Z M 176.410156 689.46875 C 176.410156 689.46875 190.414062 705.804688 217.6875 714.117188 C 219.730469 656.359375 246.128906 537.632812 246.128906 537.632812 C 230.667969 530.191406 209.664062 504.523438 209.664062 504.523438 C 176.554688 594.078125 176.410156 689.46875 176.410156 689.46875 Z M 176.410156 689.46875 " fill-opacity="1" fill-rule="nonzero"/><path fill="#3d1e22" d="M 294.261719 300.464844 C 287.699219 300.464844 282.300781 293.613281 282.300781 285.296875 C 282.300781 276.835938 287.699219 270.128906 294.261719 270.128906 C 300.828125 270.128906 306.222656 276.984375 306.222656 285.296875 C 306.222656 293.757812 300.828125 300.464844 294.261719 300.464844 Z M 390.238281 265.316406 C 381.632812 265.316406 374.777344 274.066406 374.777344 285.003906 C 374.777344 295.945312 381.632812 304.695312 390.238281 304.695312 C 398.84375 304.695312 405.699219 295.945312 405.699219 285.003906 C 405.699219 274.210938 398.84375 265.316406 390.238281 265.316406 Z M 298.347656 255.105469 C 300.390625 254.667969 300.828125 251.605469 298.929688 250.582031 C 293.679688 247.8125 287.554688 248.542969 282.011719 250 C 278.074219 251.019531 271.800781 253.5 270.925781 257.875 C 270.78125 258.167969 271.070312 258.75 271.507812 258.75 C 275.15625 259.335938 279.386719 257.292969 283.03125 256.710938 C 288.136719 255.835938 293.242188 256.417969 298.347656 255.105469 Z M 385.570312 241.976562 C 374.339844 243.144531 362.671875 248.394531 356.253906 258.023438 C 354.355469 261.085938 359.316406 264.003906 361.066406 260.792969 C 366.171875 251.3125 379.296875 248.6875 389.214844 248.980469 C 393.738281 249.125 398.113281 249.855469 402.488281 251.457031 C 406.425781 252.917969 409.78125 255.398438 414.011719 255.398438 C 415.03125 255.398438 416.054688 254.230469 415.617188 253.207031 C 412.117188 243.144531 394.613281 240.957031 385.570312 241.976562 Z M 350.5625 301.925781 C 346.335938 300.613281 342.394531 298.863281 338.019531 300.464844 C 334.664062 301.632812 332.039062 304.695312 330.726562 307.90625 C 327.519531 316.074219 333.207031 324.386719 341.957031 324.824219 C 343.5625 324.972656 344.582031 322.636719 343.269531 321.617188 C 339.480469 318.117188 333.644531 315.34375 335.976562 309.074219 C 338.167969 303.382812 345.167969 302.65625 350.417969 302.800781 C 350.855469 302.65625 350.855469 302.070312 350.5625 301.925781 Z M 388.777344 548.277344 C 357.566406 551.632812 324.601562 567.242188 300.390625 587.222656 C 299.804688 587.804688 300.535156 588.828125 301.265625 588.390625 C 314.539062 580.222656 328.101562 572.34375 342.394531 566.074219 C 357.566406 559.511719 373.171875 555.425781 388.925781 550.757812 C 390.382812 550.464844 390.238281 548.132812 388.777344 548.277344 Z M 372.003906 594.222656 C 353.773438 596.265625 336.269531 601.808594 318.914062 607.644531 C 318.328125 607.789062 318.621094 608.664062 319.203125 608.519531 C 336.851562 604.433594 354.941406 601.664062 372.441406 596.703125 C 373.609375 596.410156 373.464844 594.078125 372.003906 594.222656 Z M 479.066406 523.773438 C 478.628906 522.023438 476 522.753906 476.4375 524.503906 C 478.628906 535.734375 479.066406 547.113281 480.523438 558.34375 C 480.667969 559.21875 482.128906 559.65625 482.273438 558.636719 C 484.023438 546.820312 482.128906 535.296875 479.066406 523.773438 Z M 422.324219 499.417969 C 417.804688 501.167969 412.992188 501.605469 408.324219 503.0625 C 407.449219 503.355469 407.15625 504.960938 408.324219 505.25 C 413.429688 506.125 418.679688 503.792969 423.054688 501.3125 C 424.078125 500.582031 423.347656 498.980469 422.324219 499.417969 Z M 384.257812 414.820312 C 379.152344 413.796875 350.417969 418.320312 323.582031 411.609375 C 323.582031 415.695312 323.582031 421.527344 323.726562 425.902344 C 352.605469 430.570312 389.363281 415.839844 384.257812 414.820312 Z M 478.480469 274.648438 C 478.480469 321.46875 440.414062 359.394531 393.738281 359.394531 C 384.402344 359.394531 375.359375 357.789062 366.898438 355.015625 C 367.046875 355.601562 366.753906 356.332031 366.171875 356.621094 C 361.066406 359.101562 354.941406 359.101562 349.398438 358.519531 C 345.3125 358.082031 339.042969 357.933594 336.414062 354.289062 C 336.125 353.851562 336.414062 353.414062 336.851562 353.265625 C 340.792969 351.664062 346.042969 353.703125 350.273438 353.703125 C 354.503906 353.851562 358.585938 353.414062 362.816406 353.414062 C 331.457031 341.015625 309.140625 310.386719 309.140625 274.503906 C 309.140625 227.683594 347.210938 189.761719 393.882812 189.761719 C 440.414062 189.761719 478.480469 227.828125 478.480469 274.648438 Z M 470.460938 274.648438 C 470.460938 232.351562 436.035156 197.929688 393.738281 197.929688 C 351.4375 197.929688 317.015625 232.351562 317.015625 274.648438 C 317.015625 306.300781 336.269531 333.578125 363.691406 345.246094 C 368.796875 344.078125 373.753906 342.910156 378.714844 340.578125 C 384.550781 337.804688 389.363281 334.597656 395.78125 332.992188 C 397.53125 332.554688 399.570312 334.597656 398.257812 336.347656 C 394.175781 341.890625 386.882812 347.285156 379.007812 350.058594 C 383.820312 350.933594 388.632812 351.515625 393.738281 351.515625 C 436.035156 351.371094 470.460938 316.949219 470.460938 274.648438 Z M 470.460938 274.648438 " fill-opacity="1" fill-rule="nonzero"/><path fill="#fcc398" d="M 353.042969 218.785156 C 353.480469 218.640625 353.917969 219.078125 353.628906 219.515625 C 353.335938 219.953125 353.191406 220.390625 352.898438 220.683594 C 352.167969 220.246094 351.585938 219.953125 350.855469 219.515625 C 356.105469 210.035156 374.484375 206.535156 384.257812 205.660156 C 396.070312 204.636719 407.59375 206.386719 418.386719 211.054688 C 432.535156 217.183594 451.207031 230.164062 455.582031 246.0625 C 456.3125 248.980469 452.371094 250.4375 450.914062 248.105469 C 443.183594 235.851562 429.035156 226.808594 416.347656 220.535156 C 407.15625 216.015625 396.65625 212.804688 386.445312 212.660156 C 380.171875 212.515625 373.902344 213.679688 367.921875 215.578125 C 362.523438 217.328125 357.566406 221.121094 351.730469 221.410156 C 350.417969 221.410156 350.125 219.371094 351.4375 219.078125 C 352.167969 218.933594 352.605469 218.933594 353.042969 218.785156 Z M 455.289062 263.273438 C 456.164062 266.480469 456.75 269.984375 457.039062 273.335938 C 457.332031 276.253906 456.75 279.316406 457.1875 282.234375 C 457.625 284.566406 460.6875 283.984375 461.414062 282.234375 C 463.894531 276.109375 460.6875 267.503906 457.476562 262.398438 C 456.75 261.230469 454.851562 261.960938 455.289062 263.273438 Z M 455.289062 263.273438 " fill-opacity="1" fill-rule="nonzero"/></svg>