<svg xmlns="http://www.w3.org/2000/svg" xmlns:xlink="http://www.w3.org/1999/xlink" width="1000" zoomAndPan="magnify" viewBox="0 0 750 749.999995" height="1000" preserveAspectRatio="xMidYMid meet" version="1.0"><defs><clipPath id="9392c3c8c8"><path d="M 2 577.5 L 750 577.5 L 750 750 L 2 750 Z M 2 577.5 " clip-rule="nonzero"/></clipPath></defs><g clip-path="url(#9392c3c8c8)"><path fill="#88ae1b" d="M 388.589844 577.5 C 388.34375 577.496094 388.089844 577.589844 387.832031 577.816406 C 386.574219 578.84375 387.859375 581.109375 390.195312 583.171875 C 390.636719 583.625 391.125 584.054688 391.714844 584.414062 C 389.253906 584.34375 386.792969 584.28125 384.328125 584.257812 C 338.539062 584.144531 293.269531 591.453125 250.777344 603.082031 C 250.976562 602.5625 251.144531 602.011719 251.28125 601.441406 C 251.800781 599.398438 251.914062 598.449219 250.742188 597.722656 C 249.867188 597.179688 247.878906 598.128906 247.222656 601.035156 C 246.488281 599.410156 242.90625 595.867188 241.449219 597.492188 C 239.828125 599.308594 240.757812 601.457031 243.5625 603.136719 C 240.535156 602.09375 238.65625 601.910156 238.089844 602.71875 C 237.699219 603.273438 237.582031 604.386719 238.847656 605.792969 C 239.058594 605.96875 239.265625 606.128906 239.472656 606.277344 C 160.554688 629.542969 92.257812 667.125 49.546875 698.582031 C 49.816406 697.519531 49.714844 696.554688 49.421875 695.890625 C 49.023438 694.808594 47.828125 693.3125 46.589844 693.871094 C 44.707031 695.003906 46.28125 697.21875 46.777344 699.097656 C 45.886719 697.988281 45.074219 696.351562 43.878906 697.175781 C 43.308594 697.832031 42.777344 698.519531 44.621094 700.984375 C 43.039062 700.527344 41.042969 698.351562 40.226562 701.042969 C 39.941406 701.875 40.019531 703.816406 42.707031 703.75 C 15.511719 724.726562 0.574219 742.339844 2.914062 750 L 749.027344 750 C 749.453125 744.632812 737.464844 730.394531 716.082031 712.429688 C 716.949219 712.589844 717.882812 712.746094 718.960938 713.035156 C 720.296875 713.394531 722.242188 711.464844 720.238281 711.003906 C 718.695312 710.652344 716.1875 712.507812 716.738281 709.464844 C 717.035156 707.8125 721.574219 702.890625 718.65625 701.734375 C 714.675781 700.160156 715.105469 710.550781 712.605469 709.347656 C 710.792969 708.476562 714.867188 701.863281 712.664062 699.535156 C 710.484375 697.226562 709.507812 701.625 709.613281 702.988281 C 709.71875 704.378906 709.941406 705.734375 709.625 707.125 C 670.816406 675.925781 606.269531 635.597656 529.046875 609.804688 C 529.042969 609.785156 529.039062 609.761719 529.035156 609.742188 C 528.992188 607.492188 532.109375 603.777344 529.140625 603.425781 C 526.5625 603.570312 526.402344 606.226562 526.0625 608.722656 C 524.640625 607.273438 525.890625 604.027344 523.453125 604.46875 C 522.28125 604.8125 521.550781 605.542969 522.289062 607.589844 C 482.800781 594.964844 440.179688 586.265625 396.140625 584.5625 C 397.207031 584.007812 397.953125 583.203125 398.421875 582.1875 C 398.851562 581.195312 400.179688 579.246094 398.148438 578.996094 C 395.957031 579.078125 396.40625 582.582031 395.234375 582.640625 C 393.386719 581.207031 396.664062 577.988281 394.035156 577.832031 C 391.925781 578.164062 394.148438 581.707031 392.558594 582.375 C 391.703125 582.503906 390.3125 577.535156 388.589844 577.5 Z M 388.589844 577.5 " fill-opacity="1" fill-rule="nonzero"/></g><path fill="#aedd2a" d="M 358.53125 643.324219 C 359.125 639.8125 358.382812 635.53125 361.386719 633.398438 C 362.082031 632.726562 364.128906 633.238281 363.164062 636.066406 C 361.96875 639.222656 360.402344 641.082031 358.53125 643.324219 Z M 358.53125 643.324219 " fill-opacity="1" fill-rule="nonzero"/><path fill="#aedd2a" d="M 356.121094 642.320312 C 356.917969 640.605469 357.796875 638.949219 356.789062 636.757812 C 356.320312 635.878906 355.601562 634.0625 354.34375 635.003906 C 352.664062 636.457031 356.03125 637.292969 356.121094 642.320312 Z M 356.121094 642.320312 " fill-opacity="1" fill-rule="nonzero"/><path fill="#aedd2a" d="M 519.882812 670.441406 C 518.070312 669.960938 517.410156 665.570312 517.078125 663.066406 C 516.953125 659.703125 520.074219 658.765625 521.136719 662.207031 C 521.976562 663.851562 521.863281 671.128906 519.882812 670.441406 Z M 519.882812 670.441406 " fill-opacity="1" fill-rule="nonzero"/><path fill="#aedd2a" d="M 525.21875 670.882812 C 523.113281 670.628906 523.007812 667.519531 523.332031 665.367188 C 523.773438 663.316406 524.609375 661.828125 526.839844 662.367188 C 528.136719 662.980469 527.792969 664.5625 527.691406 665.648438 C 527.488281 668.359375 526.238281 670.851562 525.21875 670.882812 Z M 525.21875 670.882812 " fill-opacity="1" fill-rule="nonzero"/><path fill="#aedd2a" d="M 529.683594 669.757812 C 528.625 669.269531 528.777344 667.921875 528.847656 666.632812 C 528.957031 665.007812 529.691406 664.628906 530.625 664.644531 C 532.144531 664.71875 532.042969 666.378906 531.945312 667.417969 C 531.777344 669.191406 530.925781 670.09375 529.683594 669.757812 Z M 529.683594 669.757812 " fill-opacity="1" fill-rule="nonzero"/><path fill="#aedd2a" d="M 438.78125 705.203125 C 437.542969 702.542969 438.304688 701.671875 439.617188 701.289062 C 442.050781 700.847656 440.804688 704.09375 442.226562 705.542969 C 442.5625 703.046875 442.722656 700.390625 445.300781 700.246094 C 448.273438 700.597656 445.152344 704.308594 445.195312 706.558594 C 445.441406 707.796875 442.824219 708.363281 441.285156 707.8125 C 440.648438 707.3125 439.617188 707.304688 438.78125 705.203125 Z M 438.78125 705.203125 " fill-opacity="1" fill-rule="nonzero"/><path fill="#93c71e" d="M 290.765625 593.660156 C 277.214844 596.332031 263.863281 599.5 250.777344 603.082031 C 250.976562 602.5625 251.144531 602.011719 251.28125 601.441406 C 251.800781 599.398438 251.914062 598.449219 250.742188 597.722656 C 249.867188 597.179688 247.878906 598.128906 247.222656 601.035156 C 246.488281 599.410156 242.90625 595.867188 241.449219 597.492188 C 239.828125 599.308594 240.757812 601.457031 243.5625 603.136719 C 240.535156 602.09375 238.65625 601.910156 238.089844 602.71875 C 237.699219 603.273438 237.582031 604.386719 238.847656 605.792969 C 239.058594 605.96875 239.265625 606.128906 239.472656 606.277344 C 160.554688 629.542969 92.257812 667.125 49.546875 698.582031 C 49.816406 697.519531 49.714844 696.554688 49.421875 695.890625 C 49.023438 694.808594 47.828125 693.3125 46.589844 693.871094 C 44.707031 695.003906 46.28125 697.21875 46.777344 699.097656 C 45.886719 697.988281 45.074219 696.351562 43.878906 697.175781 C 43.308594 697.832031 42.777344 698.519531 44.621094 700.984375 C 43.039062 700.527344 41.042969 698.351562 40.226562 701.042969 C 39.941406 701.875 40.019531 703.816406 42.707031 703.75 C 15.511719 724.726562 0.574219 742.339844 2.914062 750 L 397.238281 750 C 324.4375 692.378906 191.539062 717.515625 290.765625 593.660156 Z M 290.765625 593.660156 " fill-opacity="1" fill-rule="nonzero"/><path fill="#aedd2a" d="M 315.421875 713.125 C 315.359375 709.695312 316.019531 705.785156 317.699219 706.042969 C 320.6875 706.667969 316.199219 711.8125 318.292969 713.132812 C 319.714844 713.679688 319.449219 707.847656 322.230469 708.183594 C 323.996094 708.804688 320.585938 711.957031 322.984375 713.398438 C 324.605469 713.925781 323.488281 709.933594 326.128906 710.390625 C 328.269531 711 323.550781 713 327.113281 714.261719 C 329.675781 715.929688 322.878906 718.367188 320.835938 717.195312 C 317.382812 716.628906 315.878906 715.871094 315.421875 713.125 Z M 315.421875 713.125 " fill-opacity="1" fill-rule="nonzero"/></svg>