<svg xmlns="http://www.w3.org/2000/svg" xmlns:xlink="http://www.w3.org/1999/xlink" width="1000" zoomAndPan="magnify" viewBox="0 0 750 749.999995" height="1000" preserveAspectRatio="xMidYMid meet" version="1.0"><path fill="#ffffff" d="M 655.734375 1.464844 L 94.058594 1.464844 C 42.4375 1.464844 0 43.839844 0 95.222656 L 0 654.324219 C 0 705.714844 42.4375 748.535156 94.058594 748.535156 L 373.535156 748.535156 L 373.535156 490.722656 L 281.25 490.722656 L 281.25 376.464844 L 373.535156 376.464844 L 373.535156 281.589844 C 373.535156 204.386719 437.761719 143.554688 515.320312 143.554688 L 610.839844 143.554688 L 610.839844 259.277344 L 562.121094 259.277344 C 536.289062 259.277344 515.625 255.871094 515.625 281.589844 L 515.625 376.464844 L 632.339844 376.464844 L 585.527344 490.722656 L 515.625 490.722656 L 515.625 748.535156 L 655.734375 748.535156 C 707.367188 748.535156 750 705.714844 750 654.324219 L 750 95.222656 C 750 43.839844 707.367188 1.464844 655.734375 1.464844 Z M 655.734375 1.464844 " fill-opacity="1" fill-rule="nonzero"/></svg>