<svg xmlns="http://www.w3.org/2000/svg" xmlns:xlink="http://www.w3.org/1999/xlink" width="1000" zoomAndPan="magnify" viewBox="0 0 750 749.999995" height="1000" preserveAspectRatio="xMidYMid meet" version="1.0"><path fill="#ffffff" d="M 168.71875 0 L 580.84375 0 C 627.417969 0 669.597656 18.894531 700.351562 49.648438 C 730.667969 79.964844 750 122.582031 750 168.71875 L 750 580.84375 C 750 627.417969 730.667969 669.597656 700.351562 700.351562 C 669.597656 730.667969 627.417969 750 580.84375 750 L 168.71875 750 C 122.582031 750 79.964844 730.667969 49.648438 700.351562 C 18.894531 669.597656 0 627.417969 0 580.84375 L 0 168.71875 C 0 122.582031 18.894531 79.964844 49.648438 49.648438 C 79.964844 18.894531 122.582031 0 168.71875 0 Z M 580.84375 66.785156 L 168.71875 66.785156 C 140.597656 66.785156 115.113281 78.207031 96.660156 96.660156 C 78.207031 115.113281 66.785156 140.597656 66.785156 168.71875 L 66.785156 580.84375 C 66.785156 608.964844 78.207031 634.445312 96.660156 652.898438 C 115.113281 671.792969 140.597656 683.214844 168.71875 683.214844 L 580.84375 683.214844 C 608.964844 683.214844 634.445312 671.792969 652.898438 652.898438 C 671.792969 634.445312 683.214844 608.964844 683.214844 580.84375 L 683.214844 168.71875 C 683.214844 140.597656 671.792969 115.113281 652.898438 96.660156 C 634.445312 78.207031 608.964844 66.785156 580.84375 66.785156 Z M 580.84375 66.785156 " fill-opacity="1" fill-rule="nonzero"/><path fill="#ffffff" d="M 585.238281 130.929688 C 594.464844 130.929688 603.25 134.445312 608.964844 140.597656 C 615.113281 146.75 619.070312 155.097656 619.070312 164.324219 C 619.070312 173.550781 615.113281 182.335938 608.964844 188.050781 C 603.25 194.199219 594.464844 198.15625 585.238281 198.15625 C 576.011719 198.15625 567.664062 194.199219 561.511719 188.050781 C 555.359375 182.335938 551.84375 173.550781 551.84375 164.324219 C 551.84375 155.097656 555.359375 146.75 561.511719 140.597656 C 567.664062 134.445312 576.011719 130.929688 585.238281 130.929688 Z M 585.238281 130.929688 " fill-opacity="1" fill-rule="nonzero"/><path fill="#ffffff" d="M 374.78125 192.882812 C 425.308594 192.882812 470.5625 213.53125 503.515625 246.046875 C 536.46875 279 557.117188 324.691406 557.117188 374.78125 C 557.117188 425.308594 536.46875 470.5625 503.515625 503.515625 C 470.5625 536.46875 425.308594 557.117188 374.78125 557.117188 C 324.691406 557.117188 279 536.46875 246.046875 503.515625 C 213.53125 470.5625 192.882812 425.308594 192.882812 374.78125 C 192.882812 324.691406 213.53125 279 246.046875 246.046875 C 279 213.53125 324.691406 192.882812 374.78125 192.882812 Z M 456.0625 293.9375 C 435.414062 273.285156 406.414062 260.105469 374.78125 260.105469 C 343.144531 260.105469 314.585938 273.285156 293.9375 293.9375 C 273.285156 314.585938 260.105469 343.144531 260.105469 374.78125 C 260.105469 406.414062 273.285156 435.414062 293.9375 456.0625 C 314.585938 476.714844 343.144531 489.457031 374.78125 489.457031 C 406.414062 489.457031 435.414062 476.714844 456.0625 456.0625 C 476.714844 435.414062 489.457031 406.414062 489.457031 374.78125 C 489.457031 343.144531 476.714844 314.585938 456.0625 293.9375 Z M 456.0625 293.9375 " fill-opacity="1" fill-rule="nonzero"/></svg>