<svg xmlns="http://www.w3.org/2000/svg" xmlns:xlink="http://www.w3.org/1999/xlink" width="1000" zoomAndPan="magnify" viewBox="0 0 750 749.999995" height="1000" preserveAspectRatio="xMidYMid meet" version="1.0"><path fill="#ffffff" d="M 674.777344 0.835938 L 76.792969 460.179688 L 382.953125 524.746094 L 574.261719 180.273438 L 587.09375 154.164062 C 587.511719 156.414062 588.269531 156.050781 589.363281 153.078125 L 408.714844 538.941406 L 615.84375 748.671875 Z M 674.777344 0.835938 " fill-opacity="1" fill-rule="nonzero"/><path fill="#ffffff" d="M 659.847656 11.21875 L 335.964844 260.011719 L 335.964844 260.015625 Z M 659.847656 11.21875 " fill-opacity="1" fill-rule="nonzero"/><path fill="#ffffff" d="M 674.25 15.34375 L 616.457031 748.71875 L 616.457031 748.722656 Z M 674.25 15.34375 " fill-opacity="1" fill-rule="nonzero"/><path fill="#ffffff" d="M 660.371094 11.28125 L 660.273438 11.289062 L 76.195312 459.980469 L 382.640625 525.3125 L 577.867188 172.53125 L 660.917969 12.183594 C 661.152344 11.824219 660.96875 11.523438 660.371094 11.28125 Z M 660.371094 11.28125 " fill-opacity="1" fill-rule="nonzero"/><path fill="#ffffff" d="M 673.636719 14.679688 L 673.46875 14.703125 L 468.097656 411.378906 L 408.4375 539.535156 L 615.941406 749.28125 L 616.460938 748.71875 L 674.25 15.34375 Z M 673.636719 14.679688 " fill-opacity="1" fill-rule="nonzero"/><path fill="#ffffff" d="M 674.777344 0.59375 L 674.699219 0.605469 L 76.066406 459.722656 C 75.921875 460.46875 76.058594 460.894531 76.472656 461 L 382.515625 525.535156 L 383.078125 524.523438 L 77.355469 460.050781 L 660.730469 11.929688 L 587.316406 153.941406 C 593.109375 151.890625 597.03125 153.453125 599.078125 158.628906 L 673.90625 14.78125 Z M 674.777344 0.59375 " fill-opacity="1" fill-rule="nonzero"/></svg>