<svg xmlns="http://www.w3.org/2000/svg" xmlns:xlink="http://www.w3.org/1999/xlink" width="1000" zoomAndPan="magnify" viewBox="0 0 750 749.999995" height="1000" preserveAspectRatio="xMidYMid meet" version="1.0"><path fill="#ffffff" d="M 373.988281 0.683594 C 166.15625 1.382812 0.0507812 170.285156 2.765625 377.992188 C 2.890625 388.429688 3.453125 398.839844 4.457031 409.230469 C 5.457031 419.617188 6.898438 429.945312 8.773438 440.210938 C 10.648438 450.476562 12.953125 460.648438 15.6875 470.71875 C 18.421875 480.792969 21.574219 490.730469 25.148438 500.535156 C 28.722656 510.34375 32.707031 519.980469 37.09375 529.449219 C 41.484375 538.917969 46.261719 548.1875 51.433594 557.253906 C 56.605469 566.320312 62.152344 575.152344 68.070312 583.75 C 73.988281 592.347656 80.257812 600.683594 86.878906 608.753906 C 87.917969 610.027344 88.859375 611.371094 89.699219 612.785156 C 90.539062 614.199219 91.265625 615.667969 91.886719 617.191406 C 92.503906 618.714844 93.007812 620.277344 93.394531 621.875 C 93.777344 623.472656 94.042969 625.09375 94.1875 626.730469 C 94.328125 628.367188 94.351562 630.007812 94.25 631.648438 C 94.144531 633.292969 93.921875 634.914062 93.578125 636.523438 C 93.230469 638.132812 92.769531 639.703125 92.1875 641.242188 C 91.609375 642.78125 90.914062 644.269531 90.113281 645.703125 L 58.023438 703.183594 C 49.125 719.117188 63.621094 737.957031 81.316406 733.457031 L 190.003906 705.796875 C 191.886719 705.320312 193.792969 705.007812 195.730469 704.867188 C 197.664062 704.726562 199.597656 704.753906 201.527344 704.953125 C 203.457031 705.148438 205.355469 705.515625 207.222656 706.046875 C 209.089844 706.578125 210.894531 707.269531 212.636719 708.117188 C 224.621094 713.933594 236.882812 719.09375 249.417969 723.589844 C 261.957031 728.085938 274.703125 731.898438 287.652344 735.023438 C 300.601562 738.144531 313.679688 740.566406 326.890625 742.28125 C 340.101562 743.996094 353.367188 744.996094 366.683594 745.28125 C 575.640625 750.003906 747.152344 583.121094 747.800781 374.21875 C 748.449219 167.601562 580.71875 -0.0117188 373.988281 0.683594 Z M 375.269531 699.496094 C 369.925781 699.496094 364.582031 699.367188 359.242188 699.105469 C 353.902344 698.84375 348.574219 698.449219 343.253906 697.925781 C 337.933594 697.402344 332.632812 696.75 327.34375 695.964844 C 322.054688 695.179688 316.789062 694.269531 311.546875 693.226562 C 306.304688 692.183594 301.089844 691.011719 295.90625 689.714844 C 290.71875 688.417969 285.570312 686.992188 280.453125 685.441406 C 275.339844 683.890625 270.265625 682.214844 265.230469 680.414062 C 260.199219 678.617188 255.214844 676.691406 250.273438 674.648438 C 245.335938 672.605469 240.449219 670.441406 235.617188 668.15625 C 230.785156 665.871094 226.011719 663.46875 221.296875 660.949219 C 216.582031 658.433594 211.933594 655.800781 207.347656 653.054688 C 202.761719 650.304688 198.25 647.449219 193.804688 644.480469 C 189.359375 641.511719 184.988281 638.4375 180.695312 635.253906 C 176.402344 632.070312 172.191406 628.785156 168.058594 625.394531 C 163.925781 622.003906 159.878906 618.515625 155.917969 614.929688 C 151.957031 611.339844 148.085938 607.65625 144.308594 603.878906 C 140.527344 600.101562 136.84375 596.234375 133.253906 592.273438 C 129.664062 588.316406 126.171875 584.269531 122.78125 580.140625 C 119.390625 576.011719 116.101562 571.800781 112.917969 567.507812 C 109.734375 563.21875 106.65625 558.851562 103.6875 554.40625 C 100.714844 549.964844 97.859375 545.453125 95.109375 540.871094 C 92.359375 536.289062 89.726562 531.640625 87.207031 526.925781 C 84.6875 522.214844 82.285156 517.445312 80 512.613281 C 77.714844 507.785156 75.546875 502.902344 73.503906 497.964844 C 71.457031 493.027344 69.535156 488.046875 67.734375 483.015625 C 65.929688 477.984375 64.253906 472.914062 62.703125 467.800781 C 61.152344 462.6875 59.726562 457.539062 58.425781 452.355469 C 57.128906 447.171875 55.957031 441.960938 54.914062 436.722656 C 53.871094 431.480469 52.957031 426.21875 52.175781 420.933594 C 51.390625 415.648438 50.734375 410.347656 50.210938 405.03125 C 49.6875 399.710938 49.292969 394.386719 49.03125 389.050781 C 48.769531 383.714844 48.640625 378.375 48.640625 373.03125 C 48.640625 192.730469 194.878906 46.5625 375.269531 46.5625 C 554.964844 46.5625 700.765625 191.597656 701.894531 370.929688 C 703.03125 550.871094 555.308594 699.496094 375.269531 699.496094 Z M 375.269531 699.496094 " fill-opacity="1" fill-rule="nonzero"/><path fill="#ffffff" d="M 316.890625 214.3125 L 317.042969 214.609375 L 336.523438 253.230469 C 337.046875 254.265625 337.527344 255.320312 337.964844 256.398438 C 338.402344 257.472656 338.796875 258.5625 339.148438 259.671875 C 339.496094 260.777344 339.800781 261.898438 340.0625 263.03125 C 340.320312 264.160156 340.535156 265.300781 340.703125 266.449219 C 340.871094 267.597656 340.992188 268.753906 341.066406 269.910156 C 341.140625 271.070312 341.167969 272.230469 341.152344 273.390625 C 341.132812 274.550781 341.066406 275.710938 340.953125 276.867188 C 340.84375 278.023438 340.683594 279.171875 340.480469 280.3125 C 340.273438 281.457031 340.023438 282.589844 339.730469 283.710938 C 339.433594 284.835938 339.09375 285.945312 338.707031 287.039062 C 338.320312 288.136719 337.894531 289.214844 337.421875 290.273438 C 336.949219 291.335938 336.433594 292.375 335.878906 293.394531 C 335.324219 294.414062 334.726562 295.410156 334.089844 296.382812 C 333.453125 297.351562 332.78125 298.296875 332.066406 299.214844 C 331.355469 300.132812 330.605469 301.019531 329.824219 301.875 C 329.039062 302.730469 328.222656 303.554688 327.371094 304.347656 C 326.523438 305.132812 325.710938 305.949219 324.929688 306.800781 C 324.148438 307.652344 323.402344 308.53125 322.695312 309.441406 C 321.984375 310.351562 321.3125 311.289062 320.675781 312.253906 C 320.042969 313.21875 319.445312 314.207031 318.890625 315.21875 C 318.335938 316.230469 317.820312 317.261719 317.347656 318.316406 C 316.875 319.367188 316.445312 320.4375 316.058594 321.527344 C 315.671875 322.613281 315.328125 323.714844 315.03125 324.832031 C 314.730469 325.945312 314.480469 327.070312 314.269531 328.207031 C 314.0625 329.339844 313.898438 330.484375 313.785156 331.632812 C 313.667969 332.78125 313.597656 333.929688 313.574219 335.085938 C 313.550781 336.238281 313.570312 337.394531 313.640625 338.546875 C 313.707031 339.699219 313.824219 340.84375 313.984375 341.988281 C 314.144531 343.132812 314.351562 344.265625 314.601562 345.390625 C 314.855469 346.519531 315.152344 347.632812 315.492188 348.738281 C 315.832031 349.839844 316.21875 350.925781 316.648438 352 C 317.074219 353.070312 317.546875 354.125 318.058594 355.15625 C 329.753906 378.628906 350.015625 410.980469 380.933594 434.328125 C 382.65625 435.632812 384.46875 436.804688 386.367188 437.84375 C 388.265625 438.878906 390.230469 439.769531 392.261719 440.511719 C 394.292969 441.257812 396.371094 441.84375 398.488281 442.277344 C 400.609375 442.710938 402.75 442.984375 404.910156 443.09375 C 407.070312 443.207031 409.226562 443.160156 411.378906 442.949219 C 413.53125 442.742188 415.660156 442.371094 417.757812 441.84375 C 419.855469 441.316406 421.902344 440.636719 423.898438 439.804688 C 425.894531 438.972656 427.816406 437.992188 429.667969 436.875 L 442.214844 429.242188 C 443.617188 428.390625 445.0625 427.621094 446.550781 426.929688 C 448.042969 426.242188 449.566406 425.640625 451.125 425.125 C 452.683594 424.609375 454.265625 424.1875 455.871094 423.851562 C 457.480469 423.515625 459.101562 423.273438 460.734375 423.121094 C 462.371094 422.972656 464.007812 422.914062 465.648438 422.949219 C 467.289062 422.988281 468.921875 423.113281 470.550781 423.335938 C 472.175781 423.558594 473.785156 423.871094 475.375 424.277344 C 476.964844 424.679688 478.527344 425.175781 480.0625 425.757812 L 529.929688 444.707031 C 531.253906 445.210938 532.550781 445.777344 533.820312 446.410156 C 535.089844 447.039062 536.324219 447.730469 537.523438 448.484375 C 538.726562 449.234375 539.886719 450.042969 541.007812 450.910156 C 542.128906 451.773438 543.203125 452.695312 544.234375 453.664062 C 545.265625 454.636719 546.246094 455.65625 547.179688 456.726562 C 548.109375 457.792969 548.984375 458.902344 549.804688 460.058594 C 550.628906 461.210938 551.390625 462.402344 552.09375 463.632812 C 552.800781 464.859375 553.441406 466.121094 554.023438 467.414062 C 554.601562 468.703125 555.117188 470.023438 555.570312 471.363281 C 556.019531 472.707031 556.40625 474.070312 556.722656 475.449219 C 557.039062 476.828125 557.289062 478.222656 557.46875 479.625 C 557.648438 481.03125 557.757812 482.441406 557.800781 483.855469 C 557.84375 485.273438 557.8125 486.6875 557.71875 488.101562 C 557.621094 489.511719 557.453125 490.917969 557.21875 492.3125 C 556.980469 493.710938 556.679688 495.09375 556.308594 496.457031 C 555.9375 497.824219 555.5 499.171875 554.996094 500.496094 C 554.414062 502.015625 553.75 503.503906 553 504.949219 L 539.183594 531.722656 C 538.625 532.804688 538.023438 533.859375 537.375 534.886719 C 536.726562 535.917969 536.039062 536.917969 535.304688 537.890625 C 534.574219 538.863281 533.800781 539.800781 532.992188 540.707031 C 532.179688 541.613281 531.332031 542.484375 530.449219 543.320312 C 529.5625 544.15625 528.644531 544.953125 527.691406 545.710938 C 526.742188 546.46875 525.757812 547.183594 524.746094 547.859375 C 523.734375 548.535156 522.695312 549.164062 521.628906 549.753906 C 520.566406 550.339844 519.476562 550.882812 518.367188 551.378906 C 517.253906 551.875 516.125 552.320312 514.976562 552.722656 C 513.828125 553.121094 512.664062 553.472656 511.484375 553.777344 C 510.304688 554.078125 509.117188 554.332031 507.917969 554.535156 C 506.714844 554.734375 505.511719 554.886719 504.296875 554.988281 C 503.085938 555.089844 501.871094 555.136719 500.652344 555.136719 C 499.4375 555.132812 498.222656 555.082031 497.011719 554.976562 C 495.796875 554.871094 494.589844 554.71875 493.390625 554.511719 C 492.191406 554.304688 491.003906 554.050781 489.828125 553.742188 C 411.507812 533.492188 224.847656 463.09375 209.808594 250.214844 C 209.660156 248.113281 209.664062 246.011719 209.824219 243.910156 C 209.980469 241.8125 210.292969 239.734375 210.753906 237.679688 C 211.214844 235.621094 211.824219 233.613281 212.578125 231.644531 C 213.335938 229.679688 214.230469 227.777344 215.261719 225.941406 C 216.296875 224.105469 217.457031 222.355469 218.746094 220.6875 C 220.035156 219.023438 221.441406 217.460938 222.957031 215.996094 C 224.476562 214.535156 226.09375 213.191406 227.808594 211.96875 C 229.519531 210.742188 231.316406 209.648438 233.191406 208.683594 L 258.625 195.625 C 259.882812 194.976562 261.171875 194.394531 262.492188 193.871094 C 263.808594 193.351562 265.148438 192.894531 266.511719 192.507812 C 267.875 192.117188 269.253906 191.792969 270.648438 191.539062 C 272.039062 191.285156 273.445312 191.101562 274.855469 190.984375 C 276.269531 190.867188 277.683594 190.820312 279.101562 190.84375 C 280.519531 190.867188 281.929688 190.957031 283.339844 191.121094 C 284.746094 191.28125 286.144531 191.511719 287.527344 191.808594 C 288.914062 192.109375 290.28125 192.472656 291.628906 192.90625 C 292.980469 193.339844 294.304688 193.835938 295.605469 194.398438 C 296.90625 194.960938 298.175781 195.589844 299.414062 196.277344 C 300.652344 196.964844 301.855469 197.710938 303.023438 198.515625 C 304.1875 199.320312 305.3125 200.183594 306.390625 201.097656 C 307.472656 202.015625 308.507812 202.980469 309.492188 204 C 310.476562 205.015625 311.410156 206.078125 312.292969 207.1875 C 313.175781 208.296875 314 209.445312 314.769531 210.636719 C 315.535156 211.828125 316.246094 213.050781 316.890625 214.3125 Z M 316.890625 214.3125 " fill-opacity="1" fill-rule="nonzero"/></svg>